<svg width="48" height="48" viewBox="0 0 48 48" fill="none" xmlns="http://www.w3.org/2000/svg">
<path fill-rule="evenodd" clip-rule="evenodd" d="M21.3353 17.8248C21.2877 18.5109 20.975 19.125 20.4978 19.5677C20.5825 19.6882 20.6683 19.8076 20.7547 19.9249C21.1539 20.4667 21.5554 20.9494 21.9296 21.3114C22.3235 21.6925 22.6098 21.8629 22.7727 21.9048C24.1465 22.258 26.8332 22.65 28.0244 22.8031C28.4077 22.8524 28.6864 23.1875 28.6615 23.5689C28.6365 23.9503 28.3164 24.247 27.9299 24.247C27.7884 24.247 27.5268 24.2794 27.28 24.3777C27.0643 24.4635 26.921 24.5738 26.841 24.697C26.8419 24.7125 26.8435 24.7331 26.8468 24.7594C26.8618 24.8793 26.9011 25.0518 26.9713 25.2781C27.1107 25.7278 27.344 26.3027 27.6304 26.9331C28.2011 28.1891 28.9468 29.5883 29.4596 30.4922C29.6576 30.8414 29.5319 31.2833 29.1788 31.4791C28.8257 31.675 28.3788 31.5507 28.1808 31.2015C27.6548 30.2742 26.8871 28.835 26.293 27.5273C25.997 26.8759 25.7351 26.2376 25.5694 25.7031C25.487 25.4372 25.4213 25.1748 25.3917 24.937C25.3658 24.73 25.3483 24.4122 25.4886 24.1235C25.5235 24.0517 25.5619 23.9838 25.6031 23.9196C24.4681 23.7407 23.2315 23.5209 22.4037 23.3081C21.8544 23.1668 21.3394 22.7688 20.9043 22.3478C20.4494 21.9078 19.994 21.3547 19.5697 20.7787C19.4382 20.6002 19.3085 20.4179 19.1815 20.2341C19.0162 20.2657 18.8455 20.2823 18.6708 20.2823C18.621 20.2823 18.5716 20.281 18.5225 20.2783C18.5514 20.5941 18.579 20.9115 18.6043 21.2244C18.6659 21.9866 18.7144 22.7287 18.7358 23.3605C18.7566 23.975 18.7541 24.5379 18.6973 24.9125C18.5982 25.5653 18.6209 26.9383 18.8552 28.3699C19.0938 29.8274 19.5205 31.1399 20.0967 31.8021C20.3608 32.1056 20.3262 32.5633 20.0193 32.8245C19.7124 33.0857 19.2495 33.0514 18.9854 32.7479C18.1234 31.7574 17.6513 30.0889 17.4078 28.6016C17.1601 27.0883 17.1175 25.5526 17.2473 24.6973C17.282 24.4687 17.2913 24.0268 17.2704 23.409C17.25 22.8085 17.2034 22.0908 17.1427 21.3399C17.0987 20.7956 17.0477 20.2371 16.9945 19.6974C16.3879 19.2132 16 18.472 16 17.6412C16 16.1825 17.1958 15 18.6708 15C19.2445 15 19.7759 15.1789 20.2112 15.4833L31.117 17.3849C31.6981 17.4862 32.0861 18.0341 31.9836 18.6088C31.8812 19.1834 31.3271 19.567 30.746 19.4657L29.9041 19.3189C29.9024 19.3329 29.9003 19.3468 29.8978 19.3608C29.821 19.7918 29.4054 20.0796 28.9696 20.0036L22.1309 18.8111C21.6951 18.7351 21.4041 18.3242 21.481 17.8932C21.4835 17.8792 21.4863 17.8654 21.4895 17.8517L21.3353 17.8248Z" fill="black"/>
</svg>
