<svg width="48" height="48" viewBox="0 0 48 48" fill="none" xmlns="http://www.w3.org/2000/svg">
<path fill-rule="evenodd" clip-rule="evenodd" d="M20 16C20 15.4477 20.4477 15 21 15C21.5523 15 22 15.4477 22 16V23.1C22 24.0941 22.8954 24.9 24 24.9C25.1046 24.9 26 24.0941 26 23.1V16C26 15.4477 26.4477 15 27 15C27.5523 15 28 15.4477 28 16V23.1C28 24.7775 26.7252 26.1869 25 26.5866V32.1C25 32.5971 24.5523 33 24 33C23.4477 33 23 32.5971 23 32.1V26.5866C21.2748 26.1869 20 24.7775 20 23.1V16Z" fill="black"/>
</svg>
